<svg width="40" height="78" fill="none" xmlns="http://www.w3.org/2000/svg"><path d="M31 61H9l-3-4h28l-3 4Z" fill="#716680"/><path d="m29 57-2 4h4l3-4h-5Z" fill="#635870"/><path d="M15 61h10v5H15v-5Z" fill="#FF573D"/><path d="M20 61h5v5h-5v-5Z" fill="#E64028"/><path d="M6 18h28v39H6V18Z" fill="#CEE8F2"/><path d="M29 18h5v39h-5V18Z" fill="#9AD5ED"/><path d="M37 18H3a2 2 0 1 1 0-5h34a2 2 0 1 1 0 5Z" fill="#716680"/><path d="M37 13h-5a2 2 0 1 1 0 5h5a2 2 0 1 0 0-5Z" fill="#635870"/><path d="M28 6H12a2 2 0 1 1 0-5h16a2 2 0 1 1 0 5Z" fill="#E8E1D5"/><path d="M28 1h-5a2 2 0 1 1 0 5h5a2 2 0 1 0 0-5ZM18 6h4v7h-4V6Z" fill="#D6CFC4"/><path d="M6 40v17h28V42c-9 0-13-6-20-6-3 0-6 1-8 4Z" fill="#78C0DE"/><path d="M34 40v17H6V42c9 0 13-6 20-6a8 8 0 0 1 8 4Z" fill="#89CEEA"/><path d="M34 40v17h-5V36l5 4Z" fill="#78C0DE"/><path d="M29 31a3 3 0 1 1-6 0 3 3 0 0 1 6 0ZM17 31a3 3 0 1 1-6 0 3 3 0 0 1 6 0Z" fill="#B0693C"/><path d="M27 37c0-4-3-6-7-6s-7 2-7 6c0 3 3 5 7 5s7-2 7-5Z" fill="#FFD659"/><path d="M37 12h-7a1 1 0 1 0 0 2h7a1 1 0 0 1 0 2H3a1 1 0 0 1 0-2h22a1 1 0 1 0 0-2h-2V7h5a3 3 0 0 0 0-7H12a3 3 0 0 0 0 7h5v5H3a3 3 0 0 0 0 7h2a1 1 0 1 0 3 0h24v18l-4-2 2-4a4 4 0 0 0-8-1 10 10 0 0 0-4 0 4 4 0 1 0-6 5l-4 2V24a1 1 0 0 0-3 0v33l3 5h6v4l1 1h4v9a1 1 0 0 0 2 0v-9h4l1-1v-4h6l3-5v-4a1 1 0 1 0-3 0v3H8V43l6-2c2 2 4 2 6 2s4 0 6-2l6 2v5a1 1 0 0 0 3 0V19h2a3 3 0 0 0 0-7ZM11 3l1-1h16a1 1 0 0 1 0 3H12l-1-2Zm8 4h2v5h-2V7Zm7 22a2 2 0 0 1 1 4l-3-2 2-2Zm-12 0 2 2-3 2v-2l1-2Zm9 36h-6v-3h6v3Zm9-7-1 2H9l-1-2h24ZM8 40c1-2 2-3 4-3l1 3-5 1v-1Zm7-1-1-2 1-2a5 5 0 0 1 3-3 7 7 0 0 1 4 0l3 3 1 2a4 4 0 0 1-1 2l-5 2-5-2Zm12 1 1-3c2 0 3 1 4 3v1l-5-1Z" fill="#000"/><path d="M19 34a1 1 0 1 1-2 0 1 1 0 0 1 2 0ZM23 34a1 1 0 1 1-2 0 1 1 0 0 1 2 0Z" fill="#000"/></svg>