<svg width="87" height="78" fill="none" xmlns="http://www.w3.org/2000/svg"><path d="M1 7h84v67a3 3 0 0 1-3 3H4a3 3 0 0 1-3-3V7Z" fill="#EBEBEB"/><path d="M1 7h84v12H1V7Z" fill="#428DC5"/><path d="M34 35a15 15 0 0 1-12 7 14 14 0 1 1 12-7Z" fill="#8DC79D"/><path d="M33 34a13 13 0 0 1-11 6 13 13 0 1 1 11-6Z" fill="#AAE5C8"/><path d="m34 35-2 3h-7a4 4 0 0 1-5-5v-3h3v3a1 1 0 0 0 2 2h9Z" fill="#428DC5"/><path d="M20 56a4 4 0 1 0 0-8 4 4 0 0 0 0 8ZM20 71a4 4 0 1 0 0-9 4 4 0 0 0 0 9Z" fill="#DBDBDB"/><path d="M20 53a1 1 0 0 1-1 0l-3-3a1 1 0 1 1 2-2l2 2 7-5a1 1 0 1 1 1 2l-7 6h-1Z" fill="#DC4D41"/><path d="M33 48h3v3h-3v-3ZM39 48h16v3H39v-3ZM33 53h9v3h-9v-3ZM45 53h8v3h-8v-3ZM46 38a4 4 0 1 0 0-9 4 4 0 0 0 0 9Z" fill="#DBDBDB"/><path d="M46 35a1 1 0 0 1-1-1l-3-3a1 1 0 1 1 2-2l2 2 7-5a1 1 0 1 1 1 3l-7 5-1 1Z" fill="#DC4D41"/><path d="M59 29h3v3h-3v-3ZM65 29h13v3H65v-3ZM59 35h12v3H59v-3ZM74 35h4v3h-4v-3ZM33 62h3v3h-3v-3ZM39 62h16v3H39v-3ZM33 68h10v3H33v-3ZM46 68h19v3H46v-3ZM38 4a3 3 0 0 0-6 0v6a3 3 0 1 0 6 0V4ZM20 4a3 3 0 0 0-6 0v6a3 3 0 1 0 6 0V4ZM55 4a3 3 0 0 0-6 0v6a3 3 0 1 0 6 0V4ZM72 4a3 3 0 0 0-6 0v6a3 3 0 1 0 6 0V4Z" fill="#DBDBDB"/><path d="M79 60a14 14 0 1 1-28-7 14 14 0 0 1 28 7Z" fill="#FBB540"/><path d="M79 60a14 14 0 0 1-14 11l-3-9h-3a3 3 0 0 1-3-2l-1-5 4-2 3-4h9l8 11Z" fill="#DA922A"/><path d="M75 55v6a3 3 0 0 1-6 0V49h2l4 6ZM62 55h3v3h-3v-3Z" fill="#834B10"/><path d="M22 32a6 6 0 0 1-6-6v-3a1 1 0 0 1 1-1l3-2 1 3-2 1v2a3 3 0 0 0 6 0v-2l-3-1 2-3 3 2a1 1 0 0 1 0 1v3a6 6 0 0 1-5 6Z" fill="#4799CF"/><path d="M85 6H74V4a4 4 0 0 0-9 0v2h-9V4a4 4 0 1 0-8 0v2h-9V4a4 4 0 1 0-9 0v2h-8V4a4 4 0 0 0-9 0v2H1a1 1 0 0 0-1 1v67a4 4 0 0 0 4 4h78a4 4 0 0 0 5-4V7a1 1 0 0 0-2-1ZM68 4a1 1 0 0 1 3 0v6a1 1 0 0 1-3 0V4ZM51 4a1 1 0 1 1 2 0v6a1 1 0 1 1-2 0V4ZM33 4a1 1 0 0 1 3 0v6a1 1 0 0 1-3 0V4Zm1 21a13 13 0 0 1-1 10h-8a1 1 0 0 1-2-2v-1a6 6 0 0 0 4-6v-3a1 1 0 0 0 0-1l-3-2-2 3 3 1v2a3 3 0 0 1-6 0v-2l2-1-1-3-3 2a1 1 0 0 0-1 1v3a6 6 0 0 0 4 6v1a4 4 0 0 0 5 5h5a13 13 0 1 1 4-13ZM16 4a1 1 0 0 1 3 0v6a1 1 0 0 1-3 0V4ZM3 9h10v1a4 4 0 0 0 1 3l-5 4H3V9Zm81 65a1 1 0 0 1-2 1H4a1 1 0 0 1-1-1V20h5a16 16 0 1 0 28 0h48v54Zm0-57H34a16 16 0 0 0-13-5l1-2V9h8v1a4 4 0 0 0 9 0V9h9v1a4 4 0 1 0 8 0V9h9v1a4 4 0 0 0 9 0V9h10v8Z" fill="#000"/><path d="M49 53h-4v3h4l1 6H39v3h13l2 3h-8v3h12a16 16 0 0 0 7 1 16 16 0 1 0-13-24H39v3h11l-1 2Zm19 16h-2l-3-7a1 1 0 0 0-1-1h-3a1 1 0 0 1-2-1v-4l3-1v-1l3-3h5v10a4 4 0 1 0 9 0v-2 1a13 13 0 0 1-9 9Zm3-8v-9l3 3v6a1 1 0 0 1-3 0ZM54 49a13 13 0 0 1 24 7l-6-8a1 1 0 0 0-1 0h-9a1 1 0 0 0-1 0l-3 4-4 2a1 1 0 0 0-1 1l1 5a4 4 0 0 0 5 4h2l2 5a13 13 0 0 1-9-20ZM20 61a6 6 0 1 0 0 11 6 6 0 0 0 0-11Zm0 8a3 3 0 1 1 0-5 3 3 0 0 1 0 5ZM27 45l-3 2a6 6 0 1 0 1 3l3-3a1 1 0 1 0-1-2Zm-7 4h1l-1 1-1-1h1Zm0 6a3 3 0 0 1-3-4l2 2a1 1 0 0 0 2 0l2-1a3 3 0 0 1-3 3Z" fill="#000"/><path d="M62 55h3v3h-3v-3ZM33 48h3v3h-3v-3ZM33 53h9v3h-9v-3ZM46 39a6 6 0 0 0 5-8l3-2a1 1 0 1 0-1-3l-3 3a6 6 0 1 0-4 10Zm0-9 1 1h-1l-1-1h1Zm-3 2 2 2a1 1 0 0 0 2 0l2-1a3 3 0 1 1-6-1ZM59 29h3v3h-3v-3ZM65 29h13v3H65v-3ZM59 35h12v3H59v-3ZM74 35h4v3h-4v-3ZM33 62h3v3h-3v-3ZM33 68h10v3H33v-3Z" fill="#000"/></svg>