<svg width="78" height="78" fill="none" xmlns="http://www.w3.org/2000/svg"><path d="M1 1h76v17H1V1Z" fill="#F9ADB1"/><path d="M71 12a6 6 0 0 0-6 6 6 6 0 1 0-13 0l-12 1-13-5-1 4a6 6 0 1 0-13 0 6 6 0 1 0-12 0l2 14 3 14 6-18 1-7v1a6 6 0 0 0 2 5l4 4h1l4-4a6 6 0 0 0 2-5l2 5 4 4h1l4-4 2-5 2 5 4 4h1l4-4 2-5a6 6 0 0 0 2 5l4 4h1l4-4a6 6 0 0 0 2-5v-1l1 7 5 18 4-14 2-14a6 6 0 0 0-6-6Z" fill="#E4E4E2"/><path d="m50 9-4-1h-4a1 1 0 0 1-1-2l4-1h1l5 2a1 1 0 0 1-1 2Z" fill="#EEA5A9"/><path d="M57 34h3v2h-3v-2ZM57 39h3v5h-3v-5Z" fill="#C0F5F9"/><path d="M39 18v2h-3a5 5 0 0 1-5-1l-3-3-1-2a7 7 0 0 1 12 4Z" fill="#FBB540"/><path d="M34 18a1 1 0 1 0 0-2 1 1 0 0 0 0 2Z" fill="#DA922A"/><path d="M52 18h-2a3 3 0 0 0-3 2 4 4 0 0 1-4 1l-4-1v-2a7 7 0 0 1 6-6h1a7 7 0 0 1 2 0 7 7 0 0 1 4 6Z" fill="#FBB540"/><path d="M44 18a1 1 0 1 0 0-2 1 1 0 0 0 0 2Z" fill="#DA922A"/><path d="M53 49a1 1 0 0 1-1-1V23a1 1 0 0 1 1-1l3-2a1 1 0 0 0-1 0h-7a1 1 0 0 1 0-3h7a3 3 0 0 1 3 5h-1l-2 2v24a1 1 0 0 1-2 1Z" fill="#6CBAE5"/><path d="M53 48a4 4 0 0 1 4 4v25h-8V52a4 4 0 0 1 4-4Z" fill="#428DC5"/><g fill="#3775A4"><path d="M53 60h4v2h-4v-2ZM53 65h4v3h-4v-3ZM53 70h4v3h-4v-3Z"/></g><path d="M49 56h8v-4a4 4 0 0 0-8 0v4Z" fill="#4799CF"/><path d="M57 34h3v2h-3v-2ZM57 39h3v5h-3v-5Z" fill="#000"/><path d="M77 0H1a1 1 0 0 0-1 1v17l2 14 3 14a1 1 0 0 0 1 1h1a1 1 0 0 0 1-1l5-18 1-1 4 5a2 2 0 0 0 3 0l4-5 1-1 1 1 4 5a2 2 0 0 0 3 0l4-5 1-1 1 1 4 5a2 2 0 0 0 3 0l4-5 1-1v21a5 5 0 0 0-4 5v25a1 1 0 0 0 1 1h8a1 1 0 0 0 2-1V52a5 5 0 0 0-4-5V29l2 3a2 2 0 0 0 3 0l4-5 1 1 5 18a1 1 0 0 0 2 1 1 1 0 0 0 1-1l3-14a59 59 0 0 0 2-14V1a1 1 0 0 0-1-1Zm-2 3v9a7 7 0 0 0-10 2 8 8 0 0 0-13 0 8 8 0 0 0-7-4 8 8 0 0 0-6 4 8 8 0 0 0-7-4 8 8 0 0 0-6 4 8 8 0 0 0-13 0 7 7 0 0 0-10-2V3h72ZM56 20l-3 2v-2h2a1 1 0 0 1 1 0Zm-8-3a1 1 0 0 0-1 1l-1 1a3 3 0 0 1-3 1l-3-1v-1a5 5 0 0 1 11-1h-3Zm-10 2h-2a4 4 0 0 1-4-1l-3-3a5 5 0 0 1 9 3v1Zm-27 8L7 41 4 31 3 18a5 5 0 0 1 9 0v3l-1 6Zm9 2-4-3a5 5 0 0 1-2-4v-4a5 5 0 0 1 11 0v4a5 5 0 0 1-2 4l-3 3Zm16-3-3 3-4-3-2-4v-5l3 3a7 7 0 0 0 7 2l1-1v1l-2 4Zm15-4-2 4-3 3-4-3-2-4v-1l2 1a5 5 0 0 0 4 0l2-2a2 2 0 0 1 2 0h1v2Zm0 53V57h5v3h-3v2h3v3h-3v3h3v2h-3v3h3v2h-5Zm5-23v3h-5v-3a3 3 0 1 1 5 0Zm8-30a5 5 0 0 1-2 4l-3 3-4-3v-2l2-2h1a3 3 0 0 0-3-5h-2a5 5 0 0 1 11 1v4Zm7 19-4-14-1-6v-3a5 5 0 0 1 9 0l-1 13-3 10Z" fill="#000"/><path d="M42 8h4l4 1a1 1 0 0 0 1-2l-5-2h-1l-4 1a1 1 0 0 0 1 2ZM34 18a1 1 0 1 0 0-2 1 1 0 0 0 0 2ZM44 18a1 1 0 1 0 0-2 1 1 0 0 0 0 2Z" fill="#000"/></svg>