<svg width="77" height="77" fill="none" xmlns="http://www.w3.org/2000/svg"><path d="M76 1v45l-2 2 2 2v10l-2 2 2 2v12H45l-3-1-2 1H1V1h75Z" fill="#3775A4"/><path d="m76 46-1 2 1 2v10l-1 2 1 2v7l-5 2-9 3H45l-3-1-2 1h-3l-3-5-2-7v-3l-1-6-1-2-3-9-4-5-6 2h-5a2 2 0 0 1 0-4h2l8-4v-2H6v-6a3 3 0 0 1 3-2l5-1 3-3 7-2v-7l2-4 10 17 4 5c4 5 10 9 16 10l4 1h8l8-2v9Z" fill="#2A597C"/><path d="m38 45-5-5 3-3 5 5-2 3h-1Z" fill="#DBDBDB"/><path d="m39 45 6 5 2-4-6-4-2 3Z" fill="#EBEBEB"/><path d="M76 46v4c-8 2-17 2-24 1l-7-1 2-4h1c9 2 19 1 28 0Z" fill="#EBEBEB"/><path d="m45 41-5 14v1h4c1-4 3-8 6-11a3 3 0 0 0 1-3 3 3 0 0 0-6-1ZM76 60v4a14 14 0 0 1-11 6 37 37 0 0 1-21-5 1 1 0 0 1 2-2l5 2 1-5v-4c-1-3 0-6 2-9l3-4a1 1 0 0 1 2 1l-3 4-2 8 1 3-1 7 4 1 1-7-1-4c0-3 0-6 2-9l2-4a1 1 0 0 1 2 1l-2 4c-1 2-2 5-1 8v11a35 35 0 0 0 5 0v-7l-1-4v-9l2-5a1 1 0 0 1 2 1l-1 5c-1 2-2 5-1 7l1 4 1 7a11 11 0 0 0 3-2v-7l-1-3c-1-3-1-6 1-9l1-3a1 1 0 0 1 2 1l-1 3v7l1 4v3h1Z" fill="#DBDBDB"/><path d="M35 1h2v7h-2V1ZM17 1h2v8h-2V1ZM42 1h3v4h-3V1ZM50 1h3v7h-3V1ZM58 1h2v4h-2V1ZM67 1h2v7h-2V1ZM28 72h3v4h-3v-4ZM21 69h2v7h-2v-7ZM13 72h2v4h-2v-4ZM1 64h4v3H1v-3ZM1 56h7v3H1v-3ZM1 49h4v2H1v-2ZM1 9h4v3H1V9ZM9 1h3v4H9V1ZM51 15h3v3h-3v-3ZM56 15h11v3H56v-3ZM51 21h11v2H51v-2ZM64 21h3v2h-3v-2Z" fill="#2F638B"/><path d="m40 56-3 3 3 4v13h5V63l1-4-2-3h-4ZM36 37l-3 3-5-4-2-5 4-3 1 2 5 7Z" fill="#EBEBEB"/><path d="M31 30a4 4 0 0 1-3 2h-2v-1l4-3 1 2Z" fill="#DADADA"/><path d="M28 22h-5a5 5 0 0 0-4 1l-2 3h-6a4 4 0 0 0-3 4v1h20a4 4 0 0 0 4-3v-1a4 4 0 0 0-4-5Z" fill="#EBEBEB"/><path d="M12 37h2l8-4a3 3 0 1 1 6 0v3l-11 5h-5a2 2 0 1 1 0-4Z" fill="#DBDBDB"/><path d="M76 0H1a1 1 0 0 0-1 1v75a1 1 0 0 0 1 1h75a1 1 0 0 0 1-1V1a1 1 0 0 0-1-1ZM39 56l-3 2a1 1 0 0 0 0 2l3 3v11h-1l-3-3-2-7v-3l-1-6-1-3-3-9-3-4 3-2 5 4 5 5 2 2-1 7v1ZM29 32h1l4 5-1 1-3-3v-2l-1-1Zm2-6-1 1a3 3 0 0 1-2 2 4 4 0 0 0-6 1H9a3 3 0 0 1 2-2l6-1h1l2-3 3-1h5a3 3 0 0 1 3 3Zm-9 9a1 1 0 0 0 1-2 2 2 0 0 1 4 0v2l-11 5h-4a1 1 0 0 1 0-1h2l1-1 7-3Zm13 5 1-1 3 3v1l-4-3Zm9 22v12h-3V62l-2-3 1-1h3l2 1-1 3Zm-1-7h-2l5-13a2 2 0 0 1 4 0 2 2 0 0 1-1 2v1c-3 3-5 6-6 10Zm-3-10 1-1h1l-1 2-1-1Zm10 3h3v2h-1l-3-1 1-1Zm-5 8 2-4h5v8l-1 5-5-2 1-4a1 1 0 0 0 0-1l-2-2Zm29 18h-2l2-1v1Zm0-4-4 2c-2 2-5 2-8 2H46v-8a37 37 0 0 0 19 4c4-1 7-2 9-5v5ZM55 59l-1-3v-3h4v3l1 4-1 7-4-1 1-7Zm0-9 1-2h3l-1 2h-3Zm6 3h3l1 3 1 4v7h-5V53Zm0-3 1-2h3l-1 2h-3Zm10 2v2l1 3v7l-3 2-1-7-1-4v-2l4-1Zm-4-2v-2h4v2h-4Zm7 6v-3l-1-1h1v4Zm0-7h-1v-2h1v2Zm0-8a1 1 0 0 0-1 1l-1 3h-3v-2a1 1 0 1 0-2-1l-1 4h-3l1-2a1 1 0 0 0-2-1l-2 3h-2l1-2a1 1 0 0 0-2-1l-2 3-3-1a4 4 0 0 0 0-3v-1a4 4 0 0 0-8-1l-1 2-1-1-5-5-5-6 1-2v-1a5 5 0 0 0-5-6h-5a6 6 0 0 0-5 1l-2 2-5 1-3 2v-2a1 1 0 0 1 1-1l5-1h1l2-3 8-2a1 1 0 0 0 1-2l-1-1v-5l1-1 9 15 4 5c4 5 10 9 17 10l4 1h9l5-1v2Zm0-5-6 2h-8l-4-1c-6-2-11-5-15-10l-4-5L27 6a1 1 0 0 0-3 0l-1 4v6l-7 2-2 3H8a4 4 0 0 0-3 4v6a1 1 0 0 0 1 1h15v1l-7 3h-2a3 3 0 0 0 0 6h5l6-2 3 4 2 9 2 3 1 5v3l2 8 2 2h-4v-2h-3v2h-5v-5h-2v5h-6v-2h-2v2H3v-7h2v-3H3v-5h5v-3H3v-5h2v-2H3V12h2V9H3V3h6v2h3V3h5v6h2V3h16v5h2V3h5v2h3V3h5v5h3V3h5v2h2V3h7v5h2V3h5v33Z" fill="#000"/><path d="M51 15h3v3h-3v-3ZM56 15h11v3H56v-3ZM51 21h11v2H51v-2ZM64 21h3v2h-3v-2Z" fill="#000"/></svg>