<svg width="68" height="77" fill="none" xmlns="http://www.w3.org/2000/svg"><path d="M52 42v-6H34v6a5 5 0 0 0-5 5v23a5 5 0 0 0 5 5h18a5 5 0 0 0 5-5V47a5 5 0 0 0-5-5Z" fill="#6B9777"/><path d="M57 25v8a3 3 0 0 1-3 3H31a3 3 0 0 1-2-3v-8a3 3 0 0 1 2-2h23a3 3 0 0 1 3 2Z" fill="#CBCBCB"/><path d="M29 49h28v18H29V49Z" fill="#E4E4E2"/><g fill="#6B9777"><path d="M45 60h-4a2 2 0 0 0 0 3h4a2 2 0 0 0 0-3ZM43 57a1 1 0 0 1-2-1v-1a1 1 0 0 1 3 0v1a1 1 0 0 1-1 1ZM39 58a1 1 0 0 1-1-1v-1a1 1 0 0 1 2 0v1a1 1 0 0 1-1 1ZM46 58a1 1 0 0 1-1-1v-1a1 1 0 1 1 3 0v1a1 1 0 0 1-2 1Z"/></g><path d="M1 76a1 1 0 0 1-1-2l8-16a1 1 0 1 1 2 1L2 75a1 1 0 0 1-1 1Z" fill="#C3C3C3"/><path d="M57 27v2h-9a1 1 0 1 1 0-2h9ZM43 29h-3a1 1 0 0 1 0-2h3a1 1 0 0 1 0 2Z" fill="#E4E4E2"/><path d="M64 55v-6H54v6a3 3 0 0 0-2 2v15a3 3 0 0 0 2 3h10a3 3 0 0 0 3-3V57a3 3 0 0 0-3-2Z" fill="#A45E14"/><path d="M66 42H52v7h14l1-1v-5l-1-1Z" fill="#A8A8A8"/><path d="M52 60h15v10H52V60Z" fill="#F3AF3E"/><path d="M67 63v3h-4a1 1 0 0 1 0-3h4ZM58 66h-1a1 1 0 0 1 0-3h1a1 1 0 1 1 0 3Z" fill="#EA9D2D"/><path d="M34 36h18v2H34v-2Z" fill="#5E8569"/><path d="M54 49h10v3H54v-3Z" fill="#834B10"/><path d="m35 23-6 12V25a3 3 0 0 1 2-2h4Z" fill="#B9B9B9"/><path d="m26 13 9 5-17 35a2 2 0 0 1-3 0l-5-2a2 2 0 0 1-1-3l17-35Z" fill="#EBEBEB"/><path d="m22 22 9 5-13 26a2 2 0 0 1-3 0l-5-2a2 2 0 0 1-1-3l13-26Z" fill="#F388A2"/><path d="m21 35 1-2 5 2-1 2-5-2ZM19 40l1-3 4 3-1 2-4-2ZM16 44l2-2 4 2-1 2-5-2ZM14 49l1-3 5 3-1 2-5-2Z" fill="#CF748A"/><path d="M9 59a3 3 0 0 1-1-4l2-4 5 2-2 5a3 3 0 0 1-4 1Z" fill="#4799CF"/><path d="M25 28a1 1 0 0 1-1-2l9-19a1 1 0 0 1 3 1L26 28a1 1 0 0 1-1 0Z" fill="#F3AF3E"/><path d="m29 15-5 11a1 1 0 1 0 2 2l6-12-3-1Z" fill="#EA9D2D"/><path d="m22 22 9 5-3 5-9-5 3-5Z" fill="#DA922A"/><path d="m31 6 7 3a3 3 0 0 0 2-4l-7-3a3 3 0 1 0-2 4Z" fill="#4799CF"/><path d="M66 51a2 2 0 0 0 2-3v-5a2 2 0 0 0-2-2H53v-4h1a4 4 0 0 0 4-4v-8a4 4 0 0 0-4-3H35l1-3a1 1 0 0 0 0-2l-4-2 3-6 2 2a4 4 0 1 0 4-7l-7-4a4 4 0 1 0-3 7l2 1-3 6-3-2a1 1 0 0 0-2 1L8 48a3 3 0 0 0 1 3l-2 4a4 4 0 0 0 1 4L0 74a1 1 0 1 0 2 1l8-15a4 4 0 0 0 4-2l1-3a3 3 0 0 0 3-1l1-1 9-18a4 4 0 0 0 3 2h2v4a6 6 0 0 0-6 6v23a6 6 0 0 0 7 6h30a4 4 0 0 0 4-4V57a4 4 0 0 0-3-4v-2h1ZM32 5a1 1 0 0 1 1-2l7 3a1 1 0 1 1-2 2l-6-3Zm-1 12 2 2-1 3-2 3-2-1 3-7Zm-4-2 2 1-3 7-3-1 4-7ZM11 57a1 1 0 0 1-2-1l2-3 2 1-2 3Zm14-23-3-1-1 2 3 2-1 2-3-2-1 3 3 1-1 3-3-2-2 2 4 2-1 2-4-2-1 3 4 1-1 2a1 1 0 0 1-1 0l-6-2a1 1 0 0 1 0-1l10-20 7 3-2 2Zm4-6-1 2-7-3 1-3 7 4Zm2 6a1 1 0 0 1-1-1v-2l1-2 2-5h21a1 1 0 0 1 1 1v2h-7a1 1 0 0 0 0 2h7v4a1 1 0 0 1-1 1H31Zm-1 13a4 4 0 0 1 4-4 1 1 0 0 0 1-1v-5h15v11H30v-1Zm4 27a4 4 0 0 1-4-4v-2h20v6H34Zm16-17v9H30V51h23v2a4 4 0 0 0-3 4Zm15 15a1 1 0 0 1-1 2H54a1 1 0 0 1-1-2v-1h12v1Zm0-9h-2a1 1 0 0 0 0 3h2v2H53v-7h12v2Zm0-5H53v-1a1 1 0 0 1 1-1h10a1 1 0 0 1 1 1v1Zm-10-5v-2h8v2h-8Zm-2-5v-5h12v5H53Z" fill="#000"/><path d="M45 60h-4a2 2 0 1 0 0 3h4a2 2 0 0 0 0-3ZM43 57a1 1 0 0 0 1-1v-1a1 1 0 0 0-3 0v1a1 1 0 0 0 2 1ZM40 57v-1a1 1 0 1 0-2 0v1a1 1 0 0 0 2 0ZM46 55a1 1 0 0 0-1 1v1a1 1 0 1 0 3 0v-1a1 1 0 0 0-2-1ZM57 66h1a1 1 0 0 0 0-3h-1a1 1 0 1 0 0 3ZM40 29h3a1 1 0 1 0 0-2h-3a1 1 0 0 0 0 2Z" fill="#000"/></svg>